<!DOCTYPE svg PUBLIC "-//W3C//DTD SVG 1.1//EN" "http://www.w3.org/Graphics/SVG/1.1/DTD/svg11.dtd">
<!-- Uploaded to: SVG Repo, www.svgrepo.com, Transformed by: SVG Repo Mixer Tools -->
<svg fill="#000000" height="91px" width="91px" version="1.1" id="Capa_1" xmlns="http://www.w3.org/2000/svg" xmlns:xlink="http://www.w3.org/1999/xlink" viewBox="-23.32 -23.32 279.88 279.88" xml:space="preserve" stroke="#000000" stroke-width="0.0023323800000000002" transform="matrix(1, 0, 0, 1, 0, 0)rotate(45)">
<g id="SVGRepo_bgCarrier" stroke-width="0">
<path transform="translate(-23.32, -23.32), scale(17.4925)" fill="#ef1515" d="M9.166.33a2.25 2.25 0 00-2.332 0l-5.25 3.182A2.25 2.25 0 00.5 5.436v5.128a2.25 2.25 0 001.084 1.924l5.25 3.182a2.25 2.25 0 002.332 0l5.25-3.182a2.25 2.25 0 001.084-1.924V5.436a2.25 2.25 0 00-1.084-1.924L9.166.33z" strokewidth="0"/>
</g>
<g id="SVGRepo_tracerCarrier" stroke-linecap="round" stroke-linejoin="round"/>
<g id="SVGRepo_iconCarrier"> <path d="M53.329,192.233c27.104,0,49.47-20.226,52.866-46.405h20.847c3.397,26.18,25.762,46.405,52.867,46.405 c29.453,0,53.329-23.876,53.329-53.329c0-28.574-22.474-51.896-50.709-53.263v-0.066h-51.845 c2.998-12.662,14.391-22.114,27.958-22.114h20.609V41.005h-20.609c-25.982,0-47.489,19.461-50.748,44.569H50.709v0.066 C22.474,87.007,0,110.33,0,138.904C0,168.357,23.876,192.233,53.329,192.233z M195.011,112.791c5.418,0,9.809,4.393,9.809,9.81 c0,5.418-4.391,9.811-9.809,9.811s-9.809-4.393-9.809-9.811C185.202,117.185,189.593,112.791,195.011,112.791z M195.011,139.607 c5.418,0,9.809,4.391,9.809,9.81c0,5.417-4.391,9.81-9.809,9.81s-9.809-4.393-9.809-9.81 C185.202,143.997,189.593,139.607,195.011,139.607z M164.629,112.791c5.418,0,9.809,4.393,9.809,9.81 c0,5.418-4.391,9.811-9.809,9.811c-5.418,0-9.809-4.393-9.809-9.811C154.82,117.185,159.211,112.791,164.629,112.791z M164.629,139.607c5.418,0,9.809,4.391,9.809,9.81c0,5.417-4.391,9.81-9.809,9.81c-5.418,0-9.809-4.393-9.809-9.81 C154.82,143.997,159.211,139.607,164.629,139.607z M28.256,129.21h16.013v-15.184h14.54v15.184h14.356v14.538H58.808v15.185h-14.54 v-15.185H28.256V129.21z"/> </g>
</svg>